# Blender v3.5.0 OBJ File: 'arokh_platform_01.blend'
# www.blender.org
mtllib arokh_platform_01.mtl
o Cube_Cube.001
v 2.932284 -1.994639 0.000000
v 2.932284 -1.994639 3.761721
v 2.932284 1.924295 0.000000
v 2.932284 1.924295 3.761721
v -1.379755 1.924295 2.603816
v -1.379755 -1.994639 2.603816
v -1.379755 -1.994639 6.365537
v -1.379755 1.924295 6.365537
v -7.600813 0.914857 3.613254
v -4.842579 1.924295 2.603816
v -4.842579 -1.994639 2.603816
v -7.600813 -0.985201 3.613254
v -4.842579 -1.994639 6.365537
v -7.600813 -0.985201 5.356098
v -4.842579 1.924295 6.365537
v -7.600813 0.914856 5.356098
v 8.708508 -1.064895 0.929744
v 5.745033 -1.994639 0.000000
v 5.745033 -1.994639 3.761721
v 8.708508 -1.064895 2.831977
v 8.708508 0.994551 0.929744
v 5.745033 1.924295 0.000000
v 8.708508 0.994551 2.831977
v 5.745033 1.924295 3.761721
vt 0.625000 0.250000
vt 0.375000 0.250000
vt 0.375000 0.250000
vt 0.625000 0.250000
vt 0.375000 0.812107
vt 0.625000 0.812107
vt 0.625000 1.000000
vt 0.375000 1.000000
vt 0.687107 0.500000
vt 0.875000 0.500000
vt 0.875000 0.750000
vt 0.687107 0.750000
vt 0.436790 0.559311
vt 0.563210 0.559311
vt 0.563210 0.690689
vt 0.436790 0.690689
vt 0.625000 0.437893
vt 0.375000 0.437893
vt 0.625000 1.000000
vt 0.375000 1.000000
vt 0.875000 0.500000
vt 0.875000 0.750000
vt 0.125000 0.500000
vt 0.125000 0.750000
vt 0.125000 0.750000
vt 0.125000 0.500000
vt 0.375000 0.250000
vt 0.625000 0.250000
vt 0.442086 0.064395
vt 0.557914 0.064395
vt 0.557914 0.185605
vt 0.442086 0.185605
vt 0.625000 1.000000
vt 0.375000 1.000000
vt 0.875000 0.500000
vt 0.875000 0.750000
vt 0.375000 0.000000
vt 0.625000 0.000000
vt 0.125000 0.750000
vt 0.125000 0.500000
vt 0.312893 0.750000
vt 0.312893 0.500000
vn 0.0000 1.0000 0.0000
vn 0.0000 -1.0000 0.0000
vn 0.0000 0.0000 1.0000
vn 1.0000 0.0000 0.0000
vn 0.5169 0.0000 0.8560
vn -0.5169 0.0000 -0.8560
vn -1.0000 0.0000 0.0000
vn -0.3437 0.0000 -0.9391
vn -0.3437 -0.9391 -0.0000
vn -0.3437 0.0000 0.9391
vn -0.3437 0.9391 0.0000
vn 0.0000 0.0000 -1.0000
vn 0.2993 0.9541 0.0000
vn 0.2993 -0.0000 -0.9541
vn 0.2993 0.0000 0.9541
vn 0.2993 -0.9541 0.0000
usemtl None
s off
f 4/1/1 3/2/1 5/3/1 8/4/1
f 18/5/2 19/6/2 2/7/2 1/8/2
f 24/9/3 4/10/3 2/11/3 19/12/3
f 21/13/4 23/14/4 20/15/4 17/16/4
f 3/2/1 4/1/1 24/17/1 22/18/1
f 1/8/2 2/7/2 7/19/2 6/20/2
f 2/11/5 4/10/5 8/21/5 7/22/5
f 3/23/6 1/24/6 6/25/6 5/26/6
f 8/4/1 5/3/1 10/27/1 15/28/1
f 12/29/7 14/30/7 16/31/7 9/32/7
f 6/20/2 7/19/2 13/33/2 11/34/2
f 7/22/3 8/21/3 15/35/3 13/36/3
f 10/27/8 11/37/8 12/29/8 9/32/8
f 11/37/9 13/38/9 14/30/9 12/29/9
f 13/38/10 15/28/10 16/31/10 14/30/10
f 15/28/11 10/27/11 9/32/11 16/31/11
f 5/26/12 6/25/12 11/39/12 10/40/12
f 23/14/13 21/13/13 22/18/13 24/17/13
f 18/41/14 22/42/14 21/13/14 17/16/14
f 24/9/15 19/12/15 20/15/15 23/14/15
f 19/6/16 18/5/16 17/16/16 20/15/16
f 3/23/12 22/42/12 18/41/12 1/24/12
